<svg width="28" height="24" viewBox="0 0 28 24" fill="none" xmlns="http://www.w3.org/2000/svg">
<path d="M21.25 16.5V11.3C20.75 11.4 20.25 11.5 19.75 11.5H19.25V17.5H9.25V10.5C9.25 7.7 11.45 5.5 14.25 5.5C14.35 4.2 14.95 3.1 15.75 2.2C15.45 1.8 14.85 1.5 14.25 1.5C13.15 1.5 12.25 2.4 12.25 3.5V3.8C9.25 4.7 7.25 7.4 7.25 10.5V16.5L5.25 18.5V19.5H23.25V18.5L21.25 16.5ZM12.25 20.5C12.25 21.6 13.15 22.5 14.25 22.5C15.35 22.5 16.25 21.6 16.25 20.5H12.25ZM23.25 6C23.25 7.9 21.65 9.5 19.75 9.5C17.85 9.5 16.25 7.9 16.25 6C16.25 4.1 17.85 2.5 19.75 2.5C21.65 2.5 23.25 4.1 23.25 6Z" fill="white"/>
<circle cx="19.5" cy="6" r="4" fill="#EF4444"/>
</svg>
