<svg width="24" height="24" viewBox="0 0 24 24" fill="none" xmlns="http://www.w3.org/2000/svg">
<path opacity="0.5" d="M16.5 12C18.43 12 20 10.43 20 8.5C20 6.57 18.43 5 16.5 5C14.57 5 13 6.57 13 8.5C13 10.43 14.57 12 16.5 12Z" fill="#E5E5E5"/>
<path opacity="0.5" d="M15.0078 19C15.5601 19 16.0078 18.5523 16.0078 18C16.0078 17.4477 15.5601 17 15.0078 17C14.4555 17 14.0078 17.4477 14.0078 18C14.0078 18.5523 14.4555 19 15.0078 19Z" fill="#E5E5E5"/>
<path opacity="0.5" d="M7 16C8.10457 16 9 15.1046 9 14C9 12.8954 8.10457 12 7 12C5.89543 12 5 12.8954 5 14C5 15.1046 5.89543 16 7 16Z" fill="#E5E5E5"/>
<path d="M7 18C9.21 18 11 16.21 11 14C11 11.79 9.21 10 7 10C4.79 10 3 11.79 3 14C3 16.21 4.79 18 7 18Z" fill="#E5E5E5"/>
<path d="M18.0078 18C18.0078 16.35 16.6578 15 15.0078 15C13.3578 15 12.0078 16.35 12.0078 18C12.0078 19.65 13.3578 21 15.0078 21C16.6578 21 18.0078 19.65 18.0078 18Z" fill="#E5E5E5"/>
<path d="M16.5 14C19.53 14 22 11.53 22 8.5C22 5.47 19.53 3 16.5 3C13.47 3 11 5.47 11 8.5C11 11.53 13.47 14 16.5 14Z" fill="#E5E5E5"/>
</svg>
