<svg width="25" height="24" viewBox="0 0 25 24" fill="none" xmlns="http://www.w3.org/2000/svg">
<g clip-path="url(#clip0_426_9968)">
<path d="M7.5 9.5C7.5 8.67 8.17 8 9 8C9.83 8 10.5 8.67 10.5 9.5C10.5 10.33 9.83 11 9 11C8.17 11 7.5 10.33 7.5 9.5ZM12.5 17.5C14.83 17.5 16.81 16.04 17.61 14H7.39C8.19 16.04 10.17 17.5 12.5 17.5ZM16 11C16.83 11 17.5 10.33 17.5 9.5C17.5 8.67 16.83 8 16 8C15.17 8 14.5 8.67 14.5 9.5C14.5 10.33 15.17 11 16 11ZM22.5 1H20.5V3H18.5V5H20.5V7H22.5V5H24.5V3H22.5V1ZM20.5 12C20.5 16.42 16.92 20 12.5 20C8.08 20 4.5 16.42 4.5 12C4.5 7.58 8.08 4 12.5 4C13.96 4 15.32 4.4 16.5 5.08V2.84C15.27 2.3 13.92 2 12.49 2C6.97 2 2.5 6.48 2.5 12C2.5 17.52 6.97 22 12.49 22C18.02 22 22.5 17.52 22.5 12C22.5 10.95 22.33 9.95 22.03 9H19.9C20.28 9.93 20.5 10.94 20.5 12Z" fill="#EC1763"/>
</g>
<defs>
<clipPath id="clip0_426_9968">
<rect width="24" height="24" fill="white" transform="translate(0.5)"/>
</clipPath>
</defs>
</svg>
